<?xml version="1.0" encoding="UTF-8" standalone="no"?>
<svg
   viewBox="0 0 240 240"
   version="1.1"
   id="svg4"
   sodipodi:docname="whatsapp.svg"
   inkscape:version="1.1.2 (0a00cf5339, 2022-02-04)"
   width="240"
   height="240"
   xmlns:inkscape="http://www.inkscape.org/namespaces/inkscape"
   xmlns:sodipodi="http://sodipodi.sourceforge.net/DTD/sodipodi-0.dtd"
   xmlns="http://www.w3.org/2000/svg"
   xmlns:svg="http://www.w3.org/2000/svg">
  <defs
     id="defs8" />
  <sodipodi:namedview
     id="namedview6"
     pagecolor="#ffffff"
     bordercolor="#666666"
     borderopacity="1.0"
     inkscape:pageshadow="2"
     inkscape:pageopacity="0.0"
     inkscape:pagecheckerboard="0"
     showgrid="false"
     inkscape:zoom="2.8085937"
     inkscape:cx="103.25452"
     inkscape:cy="127.2879"
     inkscape:window-width="1858"
     inkscape:window-height="1016"
     inkscape:window-x="0"
     inkscape:window-y="0"
     inkscape:window-maximized="1"
     inkscape:current-layer="svg4"
     units="px"
     width="240px" />
  <!--!Font Awesome Free 6.5.1 by @fontawesome - https://fontawesome.com License - https://fontawesome.com/license/free Copyright 2024 Fonticons, Inc.-->
  <rect
     style="fill:#875a7b"
     id="rect965"
     width="240"
     height="240"
     x="0"
     y="0" />
  <path
     d="M 176.0428,63.25121 C 161.07774,48.25043 141.14813,40 119.96845,40 76.25189,40 40.6786,75.57328 40.6786,119.28985 c 0,13.96501 3.64306,27.60858 10.57199,39.64492 L 40,200.00834 82.0379,188.97205 c 11.572034,6.32176 24.60843,9.64336 37.89484,9.64336 h 0.0357 c 43.68085,0 80.03989,-35.57328 80.03989,-79.28985 0,-21.17967 -9.00047,-41.07357 -23.96554,-56.07435 z m -56.07435,122.00636 c -11.85776,0 -23.465496,-3.17873 -33.573176,-9.17905 l -2.392984,-1.42864 -24.92987,6.53605 6.64321,-24.3227 -1.57151,-2.50012 c -6.60749,-10.50055 -10.07196,-22.60832 -10.07196,-35.07326 0,-36.32332 29.57297,-65.89629 65.93201,-65.89629 17.60806,0 34.14464,6.8575 46.57385,19.32243 12.42923,12.46494 20.07248,29.00151 20.03677,46.60957 0,36.35904 -30.32301,65.93201 -66.64634,65.93201 z m 36.14474,-49.35971 c -1.96438,-1.00005 -11.71489,-5.78602 -13.53641,-6.42891 -1.82153,-0.67861 -3.14303,-1.00005 -4.46453,1.00005 -1.32149,2.00011 -5.1074,6.42891 -6.28603,7.78612 -1.14292,1.3215 -2.32155,1.50008 -4.28594,0.50003 -11.64347,-5.82173 -19.28673,-10.3934 -26.9657,-23.57266 -2.03582,-3.50018 2.03583,-3.25017 5.82174,-10.82199 0.64289,-1.3215 0.32144,-2.46441 -0.17858,-3.46447 -0.50003,-1.00005 -4.46452,-10.75056 -6.10747,-14.71505 -1.60722,-3.85734 -3.25016,-3.3216 -4.464506,-3.39304 -1.14292,-0.0714 -2.46442,-0.0714 -3.78592,-0.0714 -1.32149,0 -3.46446,0.50003 -5.28598,2.46442 -1.821534,2.0001 -6.928944,6.78607 -6.928944,16.53657 0,9.75051 7.107514,19.17957 8.071854,20.50107 1.00005,1.3215 13.965006,21.32254 33.858906,29.93014 12.57209,5.42885 17.50091,5.89316 23.78695,4.96454 3.82163,-0.57146 11.7149,-4.78597 13.35784,-9.42907 1.64294,-4.6431 1.64294,-8.60758 1.14292,-9.42906 -0.46431,-0.8929 -1.78581,-1.39293 -3.7502,-2.35726 z"
     id="path2"
     style="fill:#ffffff;fill-opacity:1;stroke-width:0.357162" />
</svg>
